HIERARCHY
ROOT Hips
{
	OFFSET 0.000000 0.000000 0.000000
	CHANNELS 6 Xposition Yposition Zposition Xrotation Yrotation Zrotation
	JOINT LeftUpLeg_virtual
	{
		OFFSET 0.000000 0.000000 0.000000
		CHANNELS 3 Xrotation Yrotation Zrotation
		JOINT LeftUpLeg
		{
			OFFSET 13.026900 -6.336304 -1.092800
			CHANNELS 3 Xrotation Yrotation Zrotation
			JOINT LeftLeg
			{
				OFFSET 0.524474 -46.096886 9.782700
				CHANNELS 3 Xrotation Yrotation Zrotation
				JOINT LeftFoot
				{
					OFFSET -0.524474 -53.427422 -12.948200
					CHANNELS 3 Xrotation Yrotation Zrotation
					JOINT LeftToeBase
					{
						OFFSET 0.192200 -14.009700 16.364100
						CHANNELS 3 Xrotation Yrotation Zrotation
						JOINT LeftToe_End
						{
							OFFSET -1.784700 -0.561700 9.474800
							CHANNELS 3 Xrotation Yrotation Zrotation
							End Site
							{
								OFFSET 0 0 0
							}
						}
					}
				}
			}
		}
	}
	JOINT RightUpLeg_virtual
	{
		OFFSET 0.000000 0.000000 0.000000
		CHANNELS 3 Xrotation Yrotation Zrotation
		JOINT RightUpLeg
		{
			OFFSET -12.883000 -6.336304 -1.092800
			CHANNELS 3 Xrotation Yrotation Zrotation
			JOINT RightLeg
			{
				OFFSET -0.524587 -46.096825 9.782800
				CHANNELS 3 Xrotation Yrotation Zrotation
				JOINT RightFoot
				{
					OFFSET 0.524587 -53.427383 -12.948300
					CHANNELS 3 Xrotation Yrotation Zrotation
					JOINT RightToeBase
					{
						OFFSET -0.192200 -14.009700 16.364100
						CHANNELS 3 Xrotation Yrotation Zrotation
						JOINT RightToe_End
						{
							OFFSET 1.784700 -0.561700 9.474800
							CHANNELS 3 Xrotation Yrotation Zrotation
							End Site
							{
								OFFSET 0 0 0
							}
						}
					}
				}
			}
		}
	}
	JOINT Spine_virtual
	{
		OFFSET 0.000000 0.000000 0.000000
		CHANNELS 3 Xrotation Yrotation Zrotation
		JOINT Spine
		{
			OFFSET 0.072000 7.257294 -0.789700
			CHANNELS 3 Xrotation Yrotation Zrotation
			JOINT Spine1
			{
				OFFSET 0.000000 12.508769 -0.658067
				CHANNELS 3 Xrotation Yrotation Zrotation
				JOINT Spine1_split
				{
					OFFSET 0.000000 12.508769 -0.658067
					CHANNELS 3 Xrotation Yrotation Zrotation
					JOINT Spine2
					{
						OFFSET 0.000000 12.508769 -0.658067
						CHANNELS 3 Xrotation Yrotation Zrotation
						JOINT Neck_virtual
						{
							OFFSET 0.000000 0.000000 0.000000
							CHANNELS 3 Xrotation Yrotation Zrotation
							JOINT Neck
							{
								OFFSET 0.000000 14.033295 7.520400
								CHANNELS 3 Xrotation Yrotation Zrotation
								JOINT Head
								{
									OFFSET 0.000000 8.198502 5.703100
									CHANNELS 3 Xrotation Yrotation Zrotation
									JOINT HeadTop_End
									{
										OFFSET 0.000000 17.760803 13.332701
										CHANNELS 3 Xrotation Yrotation Zrotation
										End Site
										{
											OFFSET 0 0 0
										}
									}
								}
							}
						}
						JOINT LeftShoulder_virtual
						{
							OFFSET 0.000000 0.000000 0.000000
							CHANNELS 3 Xrotation Yrotation Zrotation
							JOINT LeftShoulder
							{
								OFFSET 6.292450 5.785301 -0.669000
								CHANNELS 3 Xrotation Yrotation Zrotation
								JOINT LeftShoulder_split
								{
									OFFSET 6.292450 5.785301 -0.669000
									CHANNELS 3 Xrotation Yrotation Zrotation
									JOINT LeftArm
									{
										OFFSET 13.907140 -6.093903 1.965100
										CHANNELS 3 Xrotation Yrotation Zrotation
										JOINT LeftForeArm
										{
											OFFSET 34.140198 0.000000 0.000000
											CHANNELS 3 Xrotation Yrotation Zrotation
											JOINT LeftHand
											{
												OFFSET 40.960209 0.000000 0.000000
												CHANNELS 3 Xrotation Yrotation Zrotation
												End Site
												{
													OFFSET 0 0 0
												}
											}
										}
									}
								}
							}
						}
						JOINT RightShoulder_virtual
						{
							OFFSET 0.000000 0.000000 0.000000
							CHANNELS 3 Xrotation Yrotation Zrotation
							JOINT RightShoulder
							{
								OFFSET -6.292450 5.785301 -0.669000
								CHANNELS 3 Xrotation Yrotation Zrotation
								JOINT RightShoulder_split
								{
									OFFSET -6.292450 5.785301 -0.669000
									CHANNELS 3 Xrotation Yrotation Zrotation
									JOINT RightArm
									{
										OFFSET -13.907140 -6.093903 1.965100
										CHANNELS 3 Xrotation Yrotation Zrotation
										JOINT RightForeArm
										{
											OFFSET -34.140198 0.000000 0.000000
											CHANNELS 3 Xrotation Yrotation Zrotation
											JOINT RightHand
											{
												OFFSET -40.960209 0.000000 0.000000
												CHANNELS 3 Xrotation Yrotation Zrotation
												End Site
												{
													OFFSET 0 0 0
												}
											}
										}
									}
								}
							}
						}
					}
				}
			}
		}
	}
}
MOTION
Frames: 11
Frame Time: 0.03333333
0.616454 115.343735 14.481960 0.000000 0.000000 0.000000 3.878082 33.401360 -2.405004 -23.202501 6.486124 3.029210 22.081995 -29.472550 -4.446166 -4.566297 -9.892714 4.758999 -0.127536 -0.038761 -0.530140 0.000000 0.000000 0.000000 3.878082 33.401360 -2.405004 -13.829046 13.905359 0.429795 22.410440 16.374677 0.356224 -11.381379 2.789560 -1.372385 -0.757220 -0.036920 -0.156794 0.000000 0.000000 0.000000 3.878082 33.401360 -2.405004 7.024228 0.724653 -2.192604 1.194965 0.878383 1.356981 0.000000 0.000000 0.000000 0.000000 0.000000 0.000000 1.187243 1.042051 1.323505 -1.462650 26.897329 -8.295223 -8.065496 21.377976 -2.733279 0.000000 0.000000 0.000000 1.187243 1.042051 1.323505 -0.058172 -1.062271 -0.947435 0.000000 0.000000 0.000000 -58.784433 22.251334 -21.915965 10.922910 -76.738487 12.155672 0.000000 0.000000 0.000000 1.187243 1.042051 1.323505 4.825636 9.166178 6.762693 0.000000 0.000000 0.000000 11.896262 18.966979 61.061591 10.535347 22.100595 -4.963111 0.000000 0.000000 0.000000 
-1.176641 115.803215 15.392933 0.000000 0.000000 0.000000 4.327678 39.271105 -3.040497 -23.860424 7.246274 3.244447 20.701477 -38.061079 -5.058850 -5.205023 -5.075847 4.713500 -0.111910 -0.038828 -0.619490 0.000000 0.000000 0.000000 4.327678 39.271105 -3.040497 -12.575043 13.732654 0.953766 20.838817 11.292809 0.954208 -11.304407 1.838095 -1.779042 -0.760460 -0.032676 0.011433 0.000000 0.000000 0.000000 4.327678 39.271105 -3.040497 7.215244 0.396563 -2.796127 1.139005 0.472318 1.508125 0.000000 0.000000 0.000000 0.000000 0.000000 0.000000 1.129823 0.658002 1.495974 -1.497329 24.861774 -8.282024 -9.017807 19.238497 -1.161760 0.000000 0.000000 0.000000 1.129823 0.658002 1.495974 -0.098274 -4.304838 -0.130150 0.000000 0.000000 0.000000 -58.723446 20.289149 -23.609855 9.881839 -75.007061 11.444890 0.000000 0.000000 0.000000 1.129823 0.658002 1.495974 4.845230 8.887825 6.669460 0.000000 0.000000 0.000000 9.629278 15.060113 62.090272 10.941250 22.517802 -5.122139 0.000000 0.000000 0.000000 
-2.900258 115.939232 15.884800 0.000000 0.000000 0.000000 5.164843 43.544474 -4.297135 -25.104516 8.199443 5.568668 19.785477 -34.709970 -4.592385 -5.439441 -5.095480 2.158804 -0.073166 -0.039225 -0.550340 0.000000 0.000000 0.000000 5.164843 43.544474 -4.297135 -12.792208 12.391822 2.262230 20.350453 8.998656 0.769022 -10.910129 0.804149 -2.167368 -0.759188 -0.032715 0.013645 0.000000 0.000000 0.000000 5.164843 43.544474 -4.297135 7.374080 0.344261 -3.059243 1.021573 0.402675 1.586730 0.000000 0.000000 0.000000 0.000000 0.000000 0.000000 1.011851 0.599493 1.577682 -1.918164 23.066293 -7.797576 -9.375054 17.512233 -0.237607 0.000000 0.000000 0.000000 1.011851 0.599493 1.577682 -0.156235 -7.215454 0.446555 0.000000 0.000000 0.000000 -58.915047 18.233883 -24.765120 9.440006 -73.554403 11.301883 0.000000 0.000000 0.000000 1.011851 0.599493 1.577682 4.849871 8.905629 6.467971 0.000000 0.000000 0.000000 7.348093 10.428498 62.949605 10.867224 23.018803 -5.002924 0.000000 0.000000 0.000000 
-4.457449 115.839821 15.993633 0.000000 0.000000 0.000000 5.754087 46.536445 -5.379696 -26.473912 8.857699 8.307655 19.912937 -28.103520 -3.772419 -5.370933 -4.687288 0.982038 -0.020811 -0.039401 -0.450928 0.000000 0.000000 0.000000 5.754087 46.536445 -5.379696 -13.471946 11.085703 3.391244 20.488459 7.824298 0.674533 -10.583634 -0.030764 -2.553087 -0.757921 -0.032727 0.014716 0.000000 0.000000 0.000000 5.754087 46.536445 -5.379696 7.682424 0.439368 -3.301849 1.049334 0.499844 1.747552 0.000000 0.000000 0.000000 0.000000 0.000000 0.000000 1.036406 0.715993 1.731404 -2.695834 21.726922 -7.561744 -9.550587 16.092785 0.515010 0.000000 0.000000 0.000000 1.036406 0.715993 1.731404 -0.157363 -9.654411 0.935501 0.000000 0.000000 0.000000 -59.361263 16.081868 -25.708047 8.519094 -71.886143 10.635723 0.000000 0.000000 0.000000 1.036406 0.715993 1.731404 4.841307 9.119458 6.195300 0.000000 0.000000 0.000000 4.891789 5.438020 63.391464 10.370547 23.170893 -4.700233 0.000000 0.000000 0.000000 
-5.725073 115.630112 15.794540 0.000000 0.000000 0.000000 6.014287 49.277896 -5.979430 -27.655163 9.549187 10.610398 21.087582 -18.525447 -1.974671 -4.889007 -4.370514 1.415901 0.041993 -0.039228 -0.328334 0.000000 0.000000 0.000000 6.014287 49.277896 -5.979430 -14.076663 9.891365 3.983850 21.053737 6.770187 0.590587 -10.516090 -0.727189 -2.689768 -0.756736 -0.032751 0.014874 0.000000 0.000000 0.000000 6.014287 49.277896 -5.979430 8.037855 0.379826 -3.677198 1.161797 0.388250 1.970579 0.000000 0.000000 0.000000 0.000000 0.000000 0.000000 1.148574 0.634448 1.959537 -3.182031 20.771391 -7.463673 -9.888901 15.057605 1.182302 0.000000 0.000000 0.000000 1.148574 0.634448 1.959537 -0.124634 -11.773971 1.358643 0.000000 0.000000 0.000000 -59.768281 14.470270 -26.379705 8.415442 -70.608891 10.726252 0.000000 0.000000 0.000000 1.148574 0.634448 1.959537 4.833054 9.369559 6.000836 0.000000 0.000000 0.000000 2.108127 0.315231 62.911725 10.017274 23.291751 -4.439872 0.000000 0.000000 0.000000 
-6.735300 115.432320 15.358173 0.000000 0.000000 0.000000 6.411452 52.275160 -6.368453 -28.443223 10.416681 12.351034 21.640312 -7.899899 -0.089776 -3.691136 -4.082065 1.372446 0.110507 -0.038487 -0.193156 0.000000 0.000000 0.000000 6.411452 52.275160 -6.368453 -14.651058 8.857592 3.951258 21.754071 5.314598 0.474977 -10.633449 -1.323858 -2.464482 -0.755689 -0.032707 0.014351 0.000000 0.000000 0.000000 6.411452 52.275160 -6.368453 8.266683 0.101984 -4.197073 1.223775 0.029360 2.140600 0.000000 0.000000 0.000000 0.000000 0.000000 0.000000 1.218087 0.304248 2.150628 -3.266868 19.879523 -7.267262 -10.347895 14.202925 1.709264 0.000000 0.000000 0.000000 1.218087 0.304248 2.150628 -0.054607 -13.252367 1.655205 0.000000 0.000000 0.000000 -60.059260 12.860059 -27.275179 9.356388 -69.503131 11.687471 0.000000 0.000000 0.000000 1.218087 0.304248 2.150628 4.852113 9.252553 5.920750 0.000000 0.000000 0.000000 -1.005767 -5.061061 62.540238 9.195672 23.512037 -4.070565 0.000000 0.000000 0.000000 
-7.504188 115.243477 14.747646 0.000000 0.000000 0.000000 6.829772 55.165177 -6.765551 -28.788318 11.591182 13.946761 22.007102 1.242901 1.239169 -2.274895 -4.011403 1.300120 0.183428 -0.035739 -0.048122 0.000000 0.000000 0.000000 6.829772 55.165177 -6.765551 -15.125268 7.880186 3.797266 22.412062 5.197441 0.464594 -10.815242 -3.137203 -2.511147 -0.754862 -0.032715 0.013360 0.000000 0.000000 0.000000 6.829772 55.165177 -6.765551 8.449636 -0.179855 -4.630687 1.224373 -0.349187 2.349312 0.000000 0.000000 0.000000 0.000000 0.000000 0.000000 1.229371 -0.043680 2.382365 -3.033480 18.991614 -7.427800 -10.746936 13.253431 2.199307 0.000000 0.000000 0.000000 1.229371 -0.043680 2.382365 0.015863 -14.184509 1.825450 0.000000 0.000000 0.000000 -60.015814 11.410719 -28.572643 10.457703 -68.637869 12.723959 0.000000 0.000000 0.000000 1.229371 -0.043680 2.382365 4.897386 8.714438 5.739091 0.000000 0.000000 0.000000 -3.979029 -10.101405 62.290478 8.453127 23.863436 -3.823087 0.000000 0.000000 0.000000 
-8.037240 115.097984 13.964573 0.000000 0.000000 0.000000 7.132915 57.703392 -7.095373 -28.960586 12.956054 15.780520 22.330484 6.560608 1.332468 -0.335510 -3.989589 1.486042 0.256378 -0.032668 0.096758 0.000000 0.000000 0.000000 7.132915 57.703392 -7.095373 -15.415073 7.007929 3.376163 22.917016 4.258204 0.390124 -10.944639 -3.840903 -2.048368 -0.754313 -0.032703 0.012129 0.000000 0.000000 0.000000 7.132915 57.703392 -7.095373 8.586886 -0.396934 -4.916381 1.249034 -0.666369 2.565334 0.000000 0.000000 0.000000 0.000000 0.000000 0.000000 1.264399 -0.331870 2.617578 -2.702734 18.209978 -7.932538 -10.939557 12.289272 2.755585 0.000000 0.000000 0.000000 1.264399 -0.331870 2.617578 0.084336 -14.856753 1.935675 0.000000 0.000000 0.000000 -59.783048 10.198764 -30.019655 11.411507 -68.003126 13.601452 0.000000 0.000000 0.000000 1.264399 -0.331870 2.617578 4.938748 8.099792 5.492800 0.000000 0.000000 0.000000 -6.388087 -14.123311 62.174679 7.819497 23.987215 -3.589082 0.000000 0.000000 0.000000 
-8.307812 115.008507 12.994854 0.000000 0.000000 0.000000 7.277582 59.864716 -7.289538 -28.891488 14.119317 17.476957 22.589024 7.615899 0.476077 1.736354 -3.842567 1.061486 0.325771 -0.028145 0.234026 0.000000 0.000000 0.000000 7.277582 59.864716 -7.289538 -15.481086 6.232166 2.759125 23.240391 3.513966 0.332077 -11.031254 -4.393463 -1.433878 -0.754091 -0.032688 0.010878 0.000000 0.000000 0.000000 7.277582 59.864716 -7.289538 8.671063 -0.548383 -5.055768 1.302367 -0.920011 2.777080 0.000000 0.000000 0.000000 0.000000 0.000000 0.000000 1.327788 -0.559255 2.844392 -2.711700 17.692512 -7.998699 -10.948377 11.735753 3.010031 0.000000 0.000000 0.000000 1.327788 -0.559255 2.844392 0.150341 -15.353570 2.004447 0.000000 0.000000 0.000000 -59.451940 9.165080 -31.519510 12.000543 -67.512397 14.128972 0.000000 0.000000 0.000000 1.327788 -0.559255 2.844392 4.971032 7.450011 5.201125 0.000000 0.000000 0.000000 -7.940829 -16.785632 62.299358 7.312290 23.838940 -3.379569 0.000000 0.000000 0.000000 
-8.271040 115.044662 11.854481 0.000000 0.000000 0.000000 7.210856 61.660482 -7.113795 -28.032336 14.926796 17.985649 22.319629 8.972556 0.621258 3.422559 -3.739396 0.305855 0.388361 -0.019363 0.355998 0.000000 0.000000 0.000000 7.210856 61.660482 -7.113795 -15.209165 5.603020 1.768717 23.284089 2.959804 0.289027 -11.063945 -4.800932 -0.664735 -0.754282 -0.032666 0.009834 0.000000 0.000000 0.000000 7.210856 61.660482 -7.113795 8.700188 -0.696850 -5.157121 1.416399 -1.143377 2.889751 0.000000 0.000000 0.000000 0.000000 0.000000 0.000000 1.451970 -0.765141 2.969579 -2.742810 17.276492 -8.153422 -10.818438 11.257232 3.148116 0.000000 0.000000 0.000000 1.451970 -0.765141 2.969579 0.211655 -15.615771 2.016756 0.000000 0.000000 0.000000 -59.152102 8.293515 -32.905994 12.243314 -67.233773 14.321616 0.000000 0.000000 0.000000 1.451970 -0.765141 2.969579 4.983049 7.054992 5.024075 0.000000 0.000000 0.000000 -8.598776 -17.990817 62.352264 7.029565 23.308415 -3.219825 0.000000 0.000000 0.000000 
-8.043127 115.213432 10.607388 0.000000 0.000000 0.000000 6.887657 63.078750 -6.673061 -26.538468 15.732125 18.114085 21.408169 9.328152 0.526170 4.149324 -3.710403 -1.059407 -0.569402 0.015667 -1.767560 0.000000 0.000000 0.000000 6.887657 63.078750 -6.673061 -14.605385 5.046846 0.640212 22.928245 2.595676 0.259993 -10.935771 -5.050520 0.179525 -0.754948 -0.032667 0.009214 0.000000 0.000000 0.000000 6.887657 63.078750 -6.673061 8.719122 -0.813457 -5.125279 1.536154 -1.316829 2.935174 0.000000 0.000000 0.000000 0.000000 0.000000 0.000000 1.578770 -0.929544 3.024361 -2.809063 16.951281 -8.190736 -10.605919 10.942965 3.112482 0.000000 0.000000 0.000000 1.578770 -0.929544 3.024361 0.264719 -15.641509 1.971649 0.000000 0.000000 0.000000 -58.853677 7.496386 -34.253942 12.256915 -67.004019 14.273147 0.000000 0.000000 0.000000 1.578770 -0.929544 3.024361 4.987264 6.750372 4.870239 0.000000 0.000000 0.000000 -8.703357 -18.152957 62.482953 7.038415 22.524229 -3.169963 0.000000 0.000000 0.000000 
